<?xml version="1.0" encoding="UTF-8"?>
<svg id="Capa_1" data-name="Capa 1" xmlns="http://www.w3.org/2000/svg" viewBox="0 0 72.04 42.77">
  <defs>
    <style>
      .cls-1 {
        fill: #fff;
      }
    </style>
  </defs>
  <path class="cls-1" d="m72.04,22.95c-.83,3.82-1.42,7.26-3.57,10.56-1.78,2.74-4.2,4.92-6.95,6.5-3.77,2.17-7.76,2.76-12.01,2.76-4.05,0-8.23-.54-11.98-2.26-6.43-2.94-9.37-9.23-9.89-16.39-.57-7.82,1.42-16.15,8.11-20.35,3.97-2.49,8.55-3.21,13.06-3.63,2.65-.25,5.07-.11,7.7.29,1.17.18,2.31.36,3.49.34,1.15-.02,2.32-.39,3.47-.17,0,.88-.19,2,0,2.86.19.88,1.09,1.17,1.75,1.69,1.3,1.02,2.4,2.29,3.3,3.71.86,1.36,1.54,2.84,2.09,4.36.77,2.1.96,4.18,1.43,6.34v3.41Zm-8.22,11.01c-.15.2-.23.32-.32.41-2.15,2.13-4.79,3.93-7.7,4.59-1.73.39-2.68-.46-4.08-1.44-1.25-.87-2.75-1.68-3.72-2.9,1.26-.1,2.57.15,3.85.12,1.4-.04,2.79-.18,4.18-.35.89-.11,7.65-1.46,7.85-.8.15-.65.56-.32.92-.33-.02.32-.04.59-.07,1.01,7.24-7.91,6.45-20.31-1.2-27.53-.24,1.72,1.72,3.05,2.58,4.39.97,1.51,1.71,3.19,2.27,4.91.71,2.2.09,3.18-1.15,4.94-.99,1.41-1.85,3.55-3.18,4.62.18-2.68.45-5.22.19-7.92-.09-.93-.42-7.05-1.61-6.84-.23-.76-.27-1.55-.62-2.24.25,1.75.62,3.47.72,5.26-3.03-4.46-7.29-7.47-11.18-10.92,3.54-.16,6.73.87,9.6,3.03-.98-3.07-6.13-3.79-8.78-3.97-3.03-.2-7.31.08-9.14,2.97,1.92-.91,4.69-2.57,6.84-1.86,2.03.67,4.16,3.16,5.57,4.78-2.62-.17-5.2-.23-7.83-.02-1.22.1-6.37-.1-6.49,1.6,1.16-.1,2.29-.4,3.54-.34-1.46,1.48-4.58,3.54-4.51,5.92,1.9-1.93,3.51-4.54,5.93-5.79,2.49-1.29,6.41-1.07,9.08-.57,2.61.49,4.47,2.57,6.02,4.72,1.88,2.6,2.47,5.75,2.2,8.99-.45,5.42-4.22,10.51-9.49,11.26-2.44.35-6.29.72-8.43-.83-2.15-1.56-4.31-4.3-5.46-6.77.02.65-.03,1.83.28,2.4.24.45.9,1.04,1.23,1.45.99,1.24,2.17,2.36,3.32,3.43,1.25,1.16,2.55,2.24,3.89,3.27.67.52,1.35,1.02,2.04,1.51.42.3,1.43.67,1.61,1.2-2.47.61-5.19-.09-7.53-.94,2.74,2.57,7.65,2.21,10.96,1.33,1.73-.46,3.4-1.2,4.92-2.19,1.52-1,2.68-1.5,2.92-3.53Z"/>
  <path class="cls-1" d="m42.31,42.4h-15c-.06-.43-.06-.44.3-.44,1.04,0,2.09,0,3.14,0,.03-.41-.13-.72-.27-1.03-1.8-3.86-3.61-7.72-5.41-11.59-.12-.26-.27-.34-.53-.34-4.36,0-8.73,0-13.09,0-.27,0-.41.11-.52.36-1.49,3.37-3.01,6.73-4.48,10.11-.63,1.44-.53,2.28,1.28,2.42,1.07.08,2.13.04,3.2.07.18,0,.48-.13.46.25-.02.32-.29.2-.45.2-3.49,0-6.97,0-10.46,0-.17,0-.48.14-.47-.23.01-.36.31-.2.49-.22.63-.06,1.26-.07,1.88-.15,1.52-.19,2.6-1.04,3.26-2.52,1.19-2.69,2.39-5.38,3.59-8.07C13.57,21.42,17.92,11.62,22.27,1.82c.12-.27.25-.55.37-.82.42-.95.73-1.11,1.71-.94.22.04.28.19.35.34,1.41,2.92,2.81,5.84,4.22,8.76.11.22.11.4,0,.62-1.6,3.25-2.19,6.74-2.32,10.37-.11,3.14.09,6.24.91,9.27,1.69,6.25,5.62,10.13,11.38,12.03,1.12.37,2.27.64,3.41.94Zm-17.58-13.98c-2.3-4.93-4.56-9.76-6.88-14.74-2.2,4.99-4.34,9.83-6.5,14.74h13.38Z"/>
  <path class="cls-1" d="m69.06,20.2c-.24,3.53-.67,7.3-2.51,10.34-.89,1.47-1.89,1.79-3.45,2.05-1.62.28-3.28.81-4.93.53.17-.85,1.98-1.78,2.6-2.37,1-.95,1.9-2.01,2.76-3.1,1.73-2.21,3.27-4.59,4.89-6.89.16-.22.33-.44.65-.57Z"/>
</svg>